<svg xmlns="http://www.w3.org/2000/svg" viewBox="0 0 1100 272.68"><defs><style>.cls-1{font-size:127.72px;fill:#ae81ff;}.cls-1,.cls-2{font-family:Microsoft-Yi-Baiti, Microsoft Yi Baiti;font-style:italic;}.cls-2{font-size:191.35px;}.cls-3{fill:#9c77ed;}</style></defs><title>CodeBattle</title><g id="Layer_2" data-name="Layer 2"><text class="cls-1" transform="translate(451.01 199.9)">B A T T L E</text><text class="cls-2" transform="translate(1.88 196.3)">CODE</text><polygon class="cls-3" points="494.2 114.25 499.43 114.25 501.25 116.53 501.25 116.53 499.43 114.25 494.2 114.25 494.2 114.25"/><polygon class="cls-3" points="501.25 116.53 501.25 117.54 567.81 117.54 567.81 114.25 499.43 114.25 501.25 116.53 501.25 116.53"/><polygon class="cls-3" points="610.43 91.3 610.43 78.48 616.28 78.48 619.2 44.52 567.81 44.52 567.81 114.25 575.72 114.25 575.72 117.54 577.2 117.54 577.2 53.84 608.98 53.84 603.49 117.54 612.91 117.54 615.17 91.3 610.43 91.3"/><rect class="cls-3" x="567.81" y="114.25" width="7.91" height="3.29"/><polygon class="cls-3" points="990.39 78.48 616.28 78.48 615.17 91.3 987.91 91.3 1054.4 117.54 1089.37 117.54 990.39 78.48"/><polygon class="cls-3" points="610.43 91.3 615.17 91.3 616.28 78.48 610.43 78.48 610.43 91.3"/><polygon class="cls-3" points="494.2 114.25 494.2 114.25 499.43 114.25 482.62 93.11 462.73 117.54 471.79 117.54 482.56 104.31 493.08 117.54 494.2 117.54 494.2 114.25"/><polygon class="cls-3" points="499.43 114.25 494.2 114.25 494.2 117.54 501.25 117.54 501.25 116.53 499.43 114.25"/><polyline class="cls-3" points="462.73 117.54 462.73 124.38 471.69 124.38 471.69 117.54"/><rect class="cls-3" x="493.08" y="117.54" width="84.13" height="6.84"/><polygon class="cls-3" points="603.49 117.54 602.88 124.38 612.3 124.38 612.91 117.54 603.49 117.54"/><rect class="cls-3" x="1054.4" y="117.54" width="34.96" height="6.84"/><polygon class="cls-3" points="620.37 96.85 617.44 124.38 1045.08 124.38 1045.08 120.24 987.2 96.85 620.37 96.85"/></g></svg>